<svg width="4614" height="330" viewBox="0 0 4614 330" fill="none" xmlns="http://www.w3.org/2000/svg">
<g clip-path="url(#clip0_4_1201)">
<path d="M299.519 261.203V2.7959H260.646V327.203H295.324L495.002 69.0756V327.203H533.875V2.7959H499.197L299.519 261.203Z" fill="#3360F4"/>
<path d="M2403.4 236.313L2266.65 2.7959H2234.49V327.203H2272.52V81.101L2393.34 286.652H2412.35L2533.17 79.7027V327.203H2571.2V2.7959H2538.76L2403.4 236.313Z" fill="#3360F4"/>
<path d="M4213.09 2.79781H4090.88V327.205H4130.31V226.527H4214.21C4248.93 228.895 4283.37 218.997 4311.53 198.561C4323.37 188.485 4332.74 175.841 4338.95 161.592C4345.15 147.343 4348.02 131.866 4347.33 116.34C4348 100.776 4345.12 85.2641 4338.92 70.9732C4332.72 56.6823 4323.36 43.9856 4311.53 33.8402C4283.55 11.9421 4248.58 0.915293 4213.09 2.79781V2.79781ZM4282.73 170.594C4262.25 185.178 4237.34 192.197 4212.25 190.45H4130.31V37.4758H4212.25C4237.42 35.7717 4262.37 43.0012 4282.73 57.891V57.891C4290.74 64.7571 4297.08 73.3686 4301.25 83.0644C4305.42 92.7602 4307.31 103.282 4306.78 113.823C4307.53 124.635 4305.75 135.473 4301.57 145.475C4297.4 155.476 4290.95 164.365 4282.73 171.433V170.594Z" fill="#3360F4"/>
<path d="M0 327.203H38.8729V37.4739H208.347V2.7959H0V327.203Z" fill="#3360F4"/>
<path d="M4350.41 2.7959V37.4739H4462.27V327.203H4502.54V37.4739H4614.41V2.7959H4350.41Z" fill="#3360F4"/>
<path d="M3595.88 327.203H3635.6V37.4739H3831.36V327.203H3870.23V2.7959H3596.16L3595.88 327.203Z" fill="#3360F4"/>
<path d="M2749.06 52.5773C2769.7 41.2533 2792.92 35.472 2816.46 35.7976C2833.51 35.3182 2850.47 38.3477 2866.3 44.6979C2882.13 51.0482 2896.48 60.5838 2908.47 72.7129L2910.43 74.6705L2935.6 49.501L2933.92 47.2637C2919.56 31.7591 2901.87 19.7115 2882.18 12.0264C2860.96 3.83083 2838.37 -0.250278 2815.62 0.00102105C2785.29 -0.509082 2755.33 6.81128 2728.65 21.2553C2703.19 35.0341 2682 55.5431 2667.4 80.5434C2652.83 106.086 2645.31 135.038 2645.59 164.442C2645.39 193.836 2652.91 222.767 2667.4 248.34V248.34C2681.81 273.292 2702.81 293.802 2728.09 307.628C2754.77 322.099 2784.71 329.511 2815.06 329.162C2837.8 329.3 2860.37 325.223 2881.62 317.137C2901.58 309.238 2919.54 297.013 2934.2 281.34L2936.44 279.662L2911.27 254.493L2909.31 256.45C2897.4 268.798 2883.03 278.513 2867.14 284.967C2851.24 291.422 2834.17 294.473 2817.02 293.925C2793.44 294.296 2770.19 288.409 2749.62 276.865C2729.87 266.097 2713.43 250.142 2702.08 230.721C2690.5 210.77 2684.51 188.068 2684.74 165.001C2684.33 142.246 2690.13 119.81 2701.51 100.101C2712.9 80.3927 2729.43 64.1567 2749.34 53.1366L2749.06 52.5773Z" fill="#3360F4"/>
<path d="M3312.87 267.357V81.9422H3274.83V327.205H3308.11L3463.32 141.79V327.205H3501.36V81.9422H3467.8L3312.87 267.357Z" fill="#3360F4"/>
<path d="M1419.84 327.203H1458.71V37.4739H1654.47V327.203H1693.35V2.7959H1419.84V327.203Z" fill="#3360F4"/>
<path d="M1180.73 2.7959L1032.51 327.203H1073.9L1112.21 243.304H1286.44L1324.75 327.203H1366.7L1217.64 2.7959H1180.73ZM1198.9 47.5417L1271.06 208.906H1127.03L1198.9 47.5417Z" fill="#3360F4"/>
<path d="M712.018 52.5746C732.67 41.2863 755.882 35.5074 779.416 35.795C796.51 35.2768 813.527 38.2874 829.406 44.6388C845.284 50.9903 859.683 60.5462 871.704 72.7102L873.662 74.6678L899.111 49.4983L897.154 47.2611C882.712 31.7216 864.924 19.6717 845.137 12.0238C820.324 2.73367 793.837 -1.24517 767.39 0.344547C740.943 1.93427 715.124 9.05715 691.603 21.2526C666.141 35.0314 644.955 55.5404 630.357 80.5407C615.788 106.083 608.261 135.035 608.543 164.439C608.34 193.833 615.863 222.765 630.357 248.337V248.337C644.768 273.289 665.762 293.799 691.043 307.625C717.727 322.096 747.665 329.509 778.018 329.159C800.757 329.298 823.324 325.22 844.577 317.134C864.534 309.236 882.49 297.01 897.154 281.337L899.111 279.1L873.662 253.931L871.704 255.888C859.794 268.236 845.427 277.951 829.531 284.405C813.636 290.86 796.564 293.911 779.416 293.363C755.842 293.694 732.596 287.81 712.018 276.303C692.267 265.535 675.829 249.58 664.476 230.159C652.945 210.099 647.05 187.295 647.416 164.159C647.009 141.404 652.807 118.968 664.189 99.2595C675.57 79.5511 692.105 63.3151 712.018 52.295V52.5746Z" fill="#3360F4"/>
<path d="M2054.11 2.7959H2010.48L1901.69 145.703H1834.02V2.7959H1795.42V327.203H1834.02V180.94H1901.69L2013.56 327.203H2061.1L1933.57 159.406L2054.11 2.7959ZM2054.11 324.406L1929.66 160.525L2054.11 324.406Z" fill="#3360F4"/>
<path d="M3222.82 2.7959H3176.11L3087.46 126.686L2998.25 2.7959H2952.66L3064.53 159.965L2945.67 327.762H2991.26L3088.58 192.686L3185.9 327.762H3232.6L3112.91 159.965L3222.82 2.7959Z" fill="#3360F4"/>
</g>
<defs>
<clipPath id="clip0_4_1201">
<rect width="4613.29" height="330" fill="white"/>
</clipPath>
</defs>
</svg>
