<svg width="18" height="18" viewBox="0 0 18 18" fill="none" xmlns="http://www.w3.org/2000/svg">
<path fill-rule="evenodd" clip-rule="evenodd" d="M2.80431 1.5C2.08423 1.5 1.5 2.09405 1.5 2.82534V3.60537C1.5 4.14706 1.70599 4.66798 2.07446 5.05981L6.11258 9.3536L6.11436 9.3509C6.89393 10.149 7.33254 11.2279 7.33254 12.3528V16.1626C7.33254 16.4172 7.59891 16.5798 7.82 16.4597L10.1196 15.2066C10.4668 15.017 10.6834 14.6486 10.6834 14.2487V12.3428C10.6834 11.2242 11.1158 10.1499 11.8883 9.3536L15.9264 5.05981C16.294 4.66798 16.5 4.14706 16.5 3.60537V2.82534C16.5 2.09405 15.9167 1.5 15.1966 1.5H2.80431Z" stroke="#A0A3B6" stroke-width="1.5" stroke-linecap="round" stroke-linejoin="round"/>
</svg>
